{"asset":{"version":"2.0","generator":"THREE.GLTFExporter r172"},"scenes":[{"nodes":[0,1]}],"scene":0,"nodes":[{"mesh":0},{"mesh":1}],"bufferViews":[{"buffer":0,"byteOffset":0,"byteLength":151776,"target":34962,"byteStride":12},{"buffer":0,"byteOffset":151776,"byteLength":101184,"target":34962,"byteStride":8},{"buffer":0,"byteOffset":252960,"byteLength":151776,"target":34962,"byteStride":12},{"buffer":0,"byteOffset":404736,"byteLength":432,"target":34962,"byteStride":12},{"buffer":0,"byteOffset":405168,"byteLength":288,"target":34962,"byteStride":8},{"buffer":0,"byteOffset":405456,"byteLength":432,"target":34962,"byteStride":12}],"buffers":[{"byteLength":405888,"uri":"data:application/octet-stream;base64,"}],"accessors":[{"bufferView":0,"componentType":5126,"count":12648,"max":[null,null,null],"min":[null,null,null],"type":"VEC3"},{"bufferView":1,"componentType":5126,"count":12648,"max":[427.9228210449219,null],"min":[-295.3418884277344,null],"type":"VEC2"},{"bufferView":2,"componentType":5126,"count":12648,"max":[null,null,null],"min":[null,null,null],"type":"VEC3"},{"bufferView":3,"componentType":5126,"count":36,"max":[229.8248748779297,2,427.9271240234375],"min":[-298.81341552734375,-5.4348408775771115e-14,-295.3418884277344],"type":"VEC3"},{"bufferView":4,"componentType":5126,"count":36,"max":[427.9271240234375,427.9271240234375],"min":[-295.3418884277344,-295.3418884277344],"type":"VEC2"},{"bufferView":5,"componentType":5126,"count":36,"max":[1,1,1],"min":[-1,-1,-1],"type":"VEC3"}],"materials":[{"pbrMetallicRoughness":{"baseColorFactor":[0.31854677811435356,0.31854677811435356,0.31854677811435356,1],"metallicFactor":0,"roughnessFactor":1}},{"pbrMetallicRoughness":{"baseColorFactor":[0.7230551289161951,0.7230551289161951,0.7230551289161951,1],"metallicFactor":0,"roughnessFactor":1},"doubleSided":true}],"meshes":[{"primitives":[{"mode":4,"attributes":{"POSITION":0,"TEXCOORD_0":1,"NORMAL":2},"material":0}]},{"primitives":[{"mode":4,"attributes":{"POSITION":3,"TEXCOORD_0":4,"NORMAL":5},"material":1}]}]}