<svg xmlns="http://www.w3.org/2000/svg" width="16" height="16" viewBox="0 0 16 16"><g fill="none" fill-rule="evenodd"><path fill="#000" fill-rule="nonzero" d="M0,12 L1,12 L1,15 L4,15 L4,16 L0,16 L0,12 Z M16,12 L16,16 L12,16 L12,15 L15,15 L15,12 L16,12 Z M16,0 L16,4 L15,3.999 L15,1 L12,1 L12,0 L16,0 Z M4,1 L1,1 L1,4 L0,4 L0,0 L4,0 L4,1 Z"/><circle cx="8" cy="8" r="4.5" stroke="#000"/><path fill="#000" fill-rule="nonzero" d="M11,8 L10,8 C10,6.8954305 9.1045695,6 8,6 L8,5 C9.65685425,5 11,6.34314575 11,8 Z"/></g></svg>