<svg xmlns="http://www.w3.org/2000/svg" width="18" height="18" viewBox="0 0 18 18"><g fill="none" fill-rule="evenodd"><path fill="#000" fill-rule="nonzero" d="M0,14 L1.5,14 L1.5,16.5 L4,16.5 L4,18 L0,18 L0,14 Z M18,14 L18,18 L14,18 L14,16.5 L16.5,16.5 L16.5,14 L18,14 Z M18,0 L18,4 L16.5,4 L16.5,1.501 L14,1.5 L14,0 L18,0 Z M4,1.5 L1.5,1.5 L1.5,4 L0,4 L0,0 L4,0 L4,1.5 Z"/><circle cx="9" cy="9" r="5.3" stroke="#000" stroke-width="1.4"/><path fill="#000" fill-rule="nonzero" d="M12,9 L11,9 C11,7.8954305 10.1045695,7 9,7 L9,6 C10.6568542,6 12,7.34314575 12,9 Z"/></g></svg>