<svg xmlns="http://www.w3.org/2000/svg" width="16" height="16" viewBox="0 0 16 16"><g fill="none" fill-rule="evenodd"><path fill="#000" fill-rule="nonzero" d="M16,8 C13,11.3333333 10.3333333,13 8,13 C7.24822974,13 6.46185794,12.8269923 5.64088459,12.4809769 L6.41481467,11.7086191 C6.89759326,11.8775654 7.3594994,11.9726787 7.79983199,11.9949105 L8,12 C9.78789019,12 11.944177,10.7640639 14.419755,8.22554387 L14.671,7.964 L14.4732666,7.73743358 C13.7690817,6.94248396 13.0718232,6.27689877 12.381746,5.73824922 L13.093633,5.02696068 C14.062422,5.79800063 15.031211,6.78901373 16,8 Z M8,3 C8.80699126,3 9.61398252,3.15263318 10.4209738,3.45789954 L9.63206646,4.24633273 C9.16155756,4.10523907 8.69475675,4.02508318 8.23175226,4.00502492 L8,4 C5.91709834,4 3.75664342,5.22010297 1.52673344,7.73743358 L1.328,7.964 L1.58024504,8.22554387 C2.32284566,8.98702526 3.03671571,9.63129706 3.72052972,10.1601583 L3.00771339,10.8719805 C2.04542139,10.1160494 1.04285026,9.15872252 0,8 C2.66666667,4.66666667 5.33333333,3 8,3 Z"/><path fill="#000" fill-rule="nonzero" d="M11,8 C11,9.65685425 9.65685425,11 8,11 C7.73155497,11 7.47134504,10.9647414 7.22374857,10.8986025 L8.126,9.995 L8.14926234,9.99451426 C9.14245,9.92123958 9.93393663,9.12265295 9.99607002,8.12640659 L10.8986025,7.22374857 C10.9647414,7.47134504 11,7.73155497 11,8 Z M8,5 C8.26916665,5 8.53005388,5.03544843 8.7782479,5.10193152 L7.875,6.004 L7.85073766,6.00548574 C6.85694366,6.07880515 6.06509704,6.87832239 6.003817,7.87541826 L5.10193152,8.7782479 C5.03544843,8.53005388 5,8.26916665 5,8 C5,6.34314575 6.34314575,5 8,5 Z"/><line x1="2" x2="14" y1="14" y2="2" stroke="#000"/></g></svg>