<svg xmlns="http://www.w3.org/2000/svg" width="18" height="18" viewBox="0 0 18 18"><g fill="none" fill-rule="evenodd"><g transform="translate(6.5 .5)"><polygon fill="#000" points="5 4.5 5 1.5 2.5 0 0 1.5 0 4.5 2.5 6"/><line x1="2.5" x2="2.5" y1="4.5" y2="10.5" stroke="#000"/></g><g transform="translate(6.5 .5)"><polygon fill="#000" points="5 4.5 5 1.5 2.5 0 0 1.5 0 4.5 2.5 6"/><line x1="2.5" x2="2.5" y1="4.5" y2="10.5" stroke="#000"/></g><g transform="rotate(120 5.606 12.126)"><polygon fill="#000" points="5 4.5 5 1.5 2.5 0 0 1.5 0 4.5 2.5 6"/><line x1="2.5" x2="2.5" y1="4.5" y2="10.5" stroke="#000"/></g><g transform="rotate(-120 5.894 8.374)"><polygon fill="#000" points="5 4.5 5 1.5 2.5 0 0 1.5 0 4.5 2.5 6"/><line x1="2.5" x2="2.5" y1="4.5" y2="10.5" stroke="#000"/></g></g></svg>